# xmcd CD database file
#
# Track frame offsets:
#	150
#	28494
#	85075
#	127873
#	170496
#	235379
#
# Disc length: 3919 seconds
#
# Revision: 0
# Processed by: cddbd v1.5.2PL0 Copyright (c) Steve Scherf et al.
# Submitted via: CDex 1.70beta2
#
DISCID=470f4d06
DTITLE=Faruq Z Bey - 19 Moons
DYEAR=2001
DGENRE=Jazz
TTITLE0=Fountain
TTITLE1=After Death
TTITLE2=Mamaka II
TTITLE3=Ayler
TTITLE4=Moors
TTITLE5=19 Moons
EXTD=YEAR: 2001
EXTT0=
EXTT1=
EXTT2=
EXTT3=
EXTT4=
EXTT5=
PLAYORDER=
